<svg id="Layer_1" data-name="Layer 1" xmlns="http://www.w3.org/2000/svg" viewBox="0 0 1583.07 1707.2"><defs><style>.cls-1{fill:#fff;}</style></defs><path class="cls-1" d="M1504.51,546.7c156.79,2.09,309.62,57.63,444.29,163.82,31.78,25.06,34.94,65.37,8,91.05-21.1,20.11-52.83,21.2-77.79,1.68-38.9-30.41-79.75-57.82-124.64-78.46-203-93.37-401.59-83.16-591.65,33.4-161.84,99.26-260.52,247.5-312.37,428.27-21.17,73.81-30.44,149.4-29.67,226.17.17,17.14-3.45,32.89-15.41,45.72-15.84,17-35.43,22.88-57.81,16.87-22.08-5.93-35.5-21-41-43a71.24,71.24,0,0,1-1.94-16.66c-.73-212.07,59.28-404.4,190.93-571.76,114.88-146,262.83-242,445.55-281.64C1389.88,551.51,1439.45,546.85,1504.51,546.7Z" transform="translate(-704.53 -546.7)"/><path class="cls-1" d="M1487.75,2253.9c-167.22-1.33-318.15-52-453.51-149.9-22.13-16-33.92-36.53-28.27-64.2,8.23-40.3,54.24-57.69,90.09-34.56,26.68,17.2,52.52,35.92,80.23,51.28,214.13,118.64,473.93,106.6,676-31.68,152.36-104.27,247.93-248.53,295.06-425.88,16.81-63.21,24.44-127.74,24.62-193.18.07-29.69,13.6-50.72,37.61-59.94,37.79-14.52,78.2,12.66,78,54.49-.15,37-1.81,74.19-6,110.92-14,121.6-51.31,235.89-113.79,341.26-105.16,177.36-254,301.74-451,365.94C1642.48,2242.65,1566,2254.2,1487.75,2253.9Z" transform="translate(-704.53 -546.7)"/><path class="cls-1" d="M1975.37,1457.34H1733.53c2,2.66,3.33,4.58,4.8,6.38,20.87,25.46,19.51,59.83-3.23,81.09s-57.45,21-81.09-1.88c-24-23.17-47-47.32-70.34-71.09-28-28.43-56.09-56.7-83.73-85.44-16.92-17.58-22.77-38.64-14.37-62,13.68-38.06,60.11-50.36,91.44-24,12.59,10.58,23.31,23.36,35.42,34.56,3.25,3,8.47,5.48,12.78,5.49q197.22.43,394.44.19a81.42,81.42,0,0,0,12.08-1c40.43-6.12,71.88,21.48,69.41,62.38-2.85,47.42-11.76,94-25.45,139.4-64.49,214-199.29,369.36-396.12,472.55-10.47,5.48-21.11,10.75-32.06,15.17-31.34,12.64-63.61.89-77-27.57-13.61-28.91-2.17-62.28,28.42-77.3,42.88-21,84.7-43.72,123-72.3,130.94-97.61,217-224.77,252.6-385,.47-2.12.86-4.27,1.14-6.43A14.67,14.67,0,0,0,1975.37,1457.34Z" transform="translate(-704.53 -546.7)"/><path class="cls-1" d="M1011.45,1364.62h237.24c-2.22-2.77-3.59-4.67-5.15-6.39-23.67-26.06-24-61.21-.67-83.9s58.79-21.9,83.75,3c46.29,46.23,91.9,93.12,137.77,139.76,7.21,7.33,14.61,14.5,21.34,22.25,20.8,23.95,20.15,58.19-1.2,79.71-22,22.12-56,23.27-80.25,1.93-11.66-10.27-22.41-21.62-33.07-33-4.66-5-9.41-7-16.25-6.94q-195.35.29-390.69,0c-9.24,0-18.86-.61-27.64-3.2-27.13-8-42.75-32.62-43-66.29-.75-126.4,28.59-245.22,92.44-354.54,74.41-127.38,179.35-219.49,319-270.21,16-5.82,32.13-8,48.31-1.44,21.9,8.93,34.54,25.58,36.31,49,1.8,23.83-8.31,42.67-29.17,54.46-9.93,5.62-21.18,8.92-31.84,13.24-106.31,43.07-185.94,116.47-243.11,215-43.56,75-67.12,156.41-74.2,242.71C1011.36,1361.06,1011.45,1362.3,1011.45,1364.62Z" transform="translate(-704.53 -546.7)"/></svg>